<?xml version="1.0" standalone="no"?>
<!DOCTYPE svg PUBLIC "-//W3C//DTD SVG 20010904//EN"
 "http://www.w3.org/TR/2001/REC-SVG-20010904/DTD/svg10.dtd">
<svg version="1.0" xmlns="http://www.w3.org/2000/svg"
 width="512.000000pt" height="512.000000pt" viewBox="0 0 512.000000 512.000000"
 preserveAspectRatio="xMidYMid meet">
<g transform="translate(0.000000,512.000000) scale(0.100000,-0.100000)"
fill="#000000" stroke="none">
<path d="M2365 4870 c-49 -6 -110 -15 -135 -20 -25 -6 -74 -18 -110 -26 -82
-19 -213 -60 -265 -84 -22 -10 -51 -21 -64 -25 -70 -21 -309 -159 -423 -243
-122 -91 -144 -110 -240 -206 -148 -148 -253 -282 -352 -446 -62 -103 -176
-338 -176 -364 0 -6 -7 -24 -15 -39 -8 -15 -22 -56 -31 -90 -9 -34 -20 -66
-24 -72 -4 -5 -15 -46 -24 -90 -9 -44 -23 -107 -31 -140 -38 -167 -51 -537
-26 -765 40 -368 200 -789 408 -1076 116 -160 302 -362 413 -446 96 -74 230
-169 270 -191 25 -13 70 -38 101 -55 85 -46 265 -122 344 -144 73 -21 269 -66
320 -73 240 -36 473 -31 700 15 83 16 159 34 170 40 11 5 40 14 65 20 89 22
338 132 420 184 208 135 266 179 382 292 105 102 236 247 274 304 13 19 36 53
51 75 72 104 203 345 203 375 0 10 -25 26 -67 45 -38 15 -100 43 -140 62 -40
18 -76 33 -80 33 -4 -1 -35 -55 -68 -122 -121 -246 -301 -464 -545 -661 -88
-72 -331 -210 -415 -237 -22 -7 -45 -16 -50 -21 -6 -4 -44 -17 -85 -29 -41
-12 -88 -26 -105 -30 -52 -16 -317 -50 -385 -50 -67 0 -348 34 -410 50 -112
28 -196 53 -205 59 -5 5 -32 17 -60 27 -225 83 -527 302 -709 512 -82 97 -243
330 -252 369 -4 13 -9 23 -13 23 -4 0 -16 25 -26 55 -11 30 -22 55 -25 55 -4
0 -12 19 -19 43 -7 23 -19 56 -27 72 -21 44 -53 158 -75 260 -10 50 -24 115
-31 145 -18 76 -18 574 0 650 7 30 21 96 31 145 20 99 59 234 71 250 4 6 11
21 15 35 23 80 146 316 224 430 49 71 156 202 217 266 39 40 198 175 244 207
164 113 314 189 488 247 229 75 533 99 785 61 75 -12 156 -28 179 -35 24 -8
63 -19 88 -26 125 -30 396 -170 525 -271 181 -141 329 -301 439 -474 21 -33
46 -71 55 -85 9 -14 43 -80 76 -146 l59 -121 50 24 c28 13 58 28 67 33 9 5 53
23 98 41 44 17 81 37 81 44 0 56 -195 391 -325 560 -83 107 -283 302 -379 370
-16 11 -41 30 -55 42 -65 52 -386 233 -415 233 -5 0 -27 9 -50 19 -90 42 -261
89 -421 117 -102 17 -442 26 -560 14z m400 -25 c103 -7 271 -32 313 -46 18 -6
32 -18 33 -27 0 -11 2 -12 6 -4 6 15 49 16 58 1 4 -6 13 -8 21 -5 8 3 14 1 14
-5 0 -6 4 -8 9 -5 5 4 11 1 13 -6 3 -7 18 -13 34 -14 51 -3 55 -4 50 -13 -3
-5 6 -8 20 -8 15 0 29 -4 33 -9 3 -5 11 -9 16 -10 6 0 25 -7 43 -15 22 -9 31
-18 27 -29 -5 -12 -4 -13 6 -2 15 14 33 16 24 2 -3 -6 4 -10 17 -10 23 0 62
-19 43 -20 -5 -1 1 -6 15 -11 l25 -10 -25 -14 c-14 -8 -19 -14 -12 -15 7 0 22
5 33 10 15 8 23 7 35 -5 11 -10 12 -15 3 -15 -7 0 -9 -3 -6 -6 4 -4 13 -1 22
6 10 8 15 9 15 1 0 -6 6 -11 13 -11 7 0 23 -9 35 -20 12 -11 26 -20 32 -20 5
0 10 -4 10 -10 0 -5 6 -10 13 -10 20 0 78 -46 69 -55 -4 -5 1 -5 10 -2 13 4
16 1 13 -14 -3 -16 0 -19 12 -15 11 5 28 -5 50 -29 18 -19 38 -35 44 -35 5 0
7 -5 3 -12 -4 -6 -3 -8 3 -5 6 4 30 -11 54 -34 27 -24 36 -37 24 -34 -18 6
-18 5 -2 -5 9 -6 23 -8 30 -4 6 4 9 4 5 0 -3 -4 9 -23 28 -42 19 -19 32 -34
29 -34 -2 0 3 -9 12 -19 9 -11 21 -17 26 -14 6 4 8 0 4 -10 -3 -9 0 -18 9 -21
9 -3 12 -10 9 -16 -3 -5 1 -10 9 -10 9 0 16 -4 16 -8 0 -5 9 -18 20 -30 11
-12 19 -27 18 -34 -2 -7 3 -12 10 -10 6 1 12 -5 12 -13 0 -8 7 -15 16 -15 10
0 14 -6 10 -15 -3 -9 0 -15 9 -15 8 0 15 -7 15 -15 0 -8 5 -15 11 -15 8 0 8
-5 -1 -15 -9 -11 -10 -15 -1 -15 16 0 41 -25 41 -40 0 -6 10 -26 23 -43 30
-43 43 -66 63 -107 10 -19 24 -43 32 -53 8 -9 13 -20 9 -23 -3 -3 3 -15 13
-27 14 -14 18 -28 13 -45 -4 -17 -2 -23 6 -18 6 4 11 5 11 2 0 -14 -72 -38
-97 -32 -17 4 -23 3 -15 -2 10 -7 10 -11 -2 -21 -8 -7 -20 -10 -26 -6 -5 3
-10 2 -10 -2 0 -9 -59 -37 -72 -34 -5 0 -8 -3 -8 -9 0 -5 -6 -10 -12 -10 -7 0
-34 44 -60 98 -49 99 -60 118 -91 161 -14 19 -15 27 -5 39 11 13 10 15 -6 9
-12 -5 -17 -3 -13 5 5 15 -17 40 -27 31 -3 -4 -6 -2 -6 4 0 6 -12 26 -27 45
-16 20 -35 46 -43 58 -8 12 -30 38 -47 58 -18 20 -33 43 -33 49 0 7 -5 12 -11
10 -6 -1 -12 8 -14 20 -1 13 -5 26 -10 30 -4 5 -5 0 -2 -9 8 -22 3 -23 -18 -2
-9 10 -13 24 -10 38 5 15 4 17 -3 7 -8 -11 -14 -10 -36 4 -24 16 -31 27 -27
48 1 5 -3 6 -9 2 -11 -7 -40 18 -40 35 0 6 -4 9 -8 6 -12 -7 -83 54 -76 65 3
6 0 9 -7 7 -14 -2 -61 24 -87 49 -7 7 -20 13 -28 13 -12 0 -18 12 -16 32 1 3
-5 9 -14 12 -8 3 -12 2 -9 -4 3 -6 2 -10 -3 -10 -6 0 -12 7 -16 15 -3 8 -9 15
-13 14 -20 -3 -30 3 -46 31 -10 17 -23 30 -28 30 -5 0 -1 -10 11 -22 11 -12
17 -24 14 -27 -3 -3 -11 2 -18 11 -7 9 -25 20 -41 24 -45 11 -96 44 -89 57 5
8 3 8 -6 0 -14 -13 -55 1 -46 15 2 4 -8 8 -22 9 -47 3 -152 35 -146 44 3 5
-15 9 -40 9 -30 0 -46 4 -47 13 0 9 -2 9 -6 -1 -3 -8 -9 -10 -16 -3 -7 5 -43
12 -82 16 -38 4 -79 10 -90 13 -28 7 -406 9 -394 1 10 -6 -152 -32 -203 -32
-15 0 -25 -3 -23 -7 3 -4 -7 -11 -23 -14 -15 -4 -36 -9 -47 -12 -16 -4 -17 -3
-5 5 8 6 10 11 4 11 -6 0 -17 -7 -24 -15 -7 -8 -19 -15 -26 -15 -8 0 -22 -4
-32 -10 -36 -20 -125 -49 -135 -43 -6 3 -8 2 -5 -3 3 -5 -14 -19 -38 -31 -35
-18 -45 -20 -56 -10 -11 10 -18 10 -38 -1 l-25 -13 28 4 c31 5 32 -10 1 -27
-10 -6 -31 -19 -47 -29 -15 -11 -34 -16 -42 -13 -9 3 -12 0 -8 -10 3 -7 1 -14
-5 -14 -6 0 -13 6 -15 13 -3 6 -6 2 -6 -10 -1 -13 -7 -23 -15 -23 -8 0 -28
-13 -44 -30 -17 -16 -38 -30 -46 -30 -9 0 -16 -5 -16 -11 0 -6 -7 -8 -16 -5
-12 5 -15 2 -10 -10 5 -13 2 -15 -13 -11 -15 4 -19 0 -16 -15 4 -16 2 -18 -11
-7 -12 10 -13 9 -9 -3 8 -21 -56 -73 -67 -55 -5 8 -8 8 -8 1 0 -6 -10 -16 -22
-23 -23 -11 -23 -11 2 -6 24 6 24 5 6 -9 -11 -9 -16 -16 -10 -16 5 -1 -2 -9
-15 -20 -12 -11 -27 -17 -32 -14 -5 3 -6 -1 -3 -9 8 -21 -14 -31 -34 -16 -14
11 -15 11 -4 -1 17 -20 15 -33 -4 -26 -11 4 -15 2 -11 -8 7 -17 -16 -40 -27
-28 -4 4 -7 3 -6 -3 4 -20 -13 -55 -27 -55 -8 0 -12 -4 -9 -9 3 -5 -6 -21 -19
-35 -14 -15 -25 -31 -25 -35 0 -5 -7 -14 -15 -21 -9 -7 -23 -28 -32 -47 -12
-26 -18 -31 -25 -21 -7 9 -8 8 -4 -5 7 -22 -24 -74 -34 -57 -4 6 -7 -3 -7 -20
0 -18 -4 -35 -9 -38 -6 -4 -23 -33 -38 -64 -21 -41 -33 -55 -45 -51 -12 4 -13
3 -3 -5 15 -10 6 -62 -10 -62 -5 0 -7 -4 -4 -9 3 -5 -1 -22 -9 -37 -8 -16 -15
-35 -15 -41 0 -7 -5 -13 -11 -13 -5 0 -8 -4 -5 -9 4 -5 3 -16 0 -25 -5 -14 -9
-14 -23 -4 -14 11 -14 11 -3 -4 11 -13 11 -26 -1 -72 -8 -30 -12 -58 -8 -62 3
-4 1 -4 -5 -1 -8 4 -14 -5 -17 -26 -2 -17 -17 -108 -31 -202 -20 -129 -26
-205 -26 -315 1 -162 6 -245 16 -262 5 -8 1 -9 -11 -4 -15 5 -16 4 -5 -9 7 -9
15 -36 17 -61 5 -62 7 -68 17 -75 4 -4 9 -30 9 -58 0 -28 4 -51 8 -51 3 0 12
-21 18 -48 7 -26 17 -55 22 -64 5 -10 9 -29 9 -42 0 -14 5 -28 11 -31 6 -4 8
-14 5 -22 -3 -8 -1 -11 4 -8 6 3 10 -5 10 -19 0 -14 5 -28 10 -31 6 -3 10 -17
10 -31 0 -17 4 -23 12 -18 7 5 8 3 4 -5 -5 -7 0 -18 10 -26 12 -9 14 -14 6
-15 -8 0 -6 -7 7 -21 11 -12 17 -27 14 -35 -3 -8 -1 -14 3 -14 5 0 18 -18 28
-40 11 -22 23 -40 27 -40 5 0 6 -7 3 -15 -4 -8 -1 -15 4 -15 6 0 13 -9 17 -19
5 -16 38 -64 75 -108 5 -7 10 -16 10 -21 0 -5 6 -15 14 -22 8 -6 12 -18 9 -26
-3 -10 0 -12 10 -8 8 3 18 0 23 -7 5 -8 3 -10 -7 -4 -8 5 -1 -4 14 -20 15 -16
25 -35 23 -42 -3 -8 -2 -12 3 -9 10 7 103 -93 96 -104 -3 -5 0 -12 6 -16 8 -4
9 -3 5 4 -12 19 8 14 26 -7 9 -11 13 -23 10 -27 -4 -4 1 -4 10 -1 12 4 16 1
13 -12 -3 -15 1 -18 18 -14 18 4 19 3 7 -6 -11 -8 -12 -11 -2 -11 15 0 54 -28
103 -73 16 -15 34 -27 39 -27 5 0 7 -9 5 -20 -3 -17 -1 -18 14 -11 14 8 25 3
50 -25 18 -19 37 -32 42 -28 8 5 13 -9 10 -28 0 -5 6 -8 14 -8 8 0 15 6 16 13
0 10 2 10 6 0 2 -7 9 -13 14 -13 6 0 19 -9 31 -20 12 -11 28 -20 35 -20 8 0
12 -4 9 -9 -4 -5 4 -7 16 -3 14 3 19 2 14 -6 -4 -7 -1 -12 6 -12 7 0 33 -10
58 -21 35 -16 42 -22 30 -30 -12 -8 -10 -9 6 -4 24 6 88 -18 77 -29 -5 -5 3
-5 16 -1 18 5 22 4 16 -5 -5 -8 -4 -11 3 -6 12 7 63 -13 74 -29 5 -6 8 -6 8 2
0 8 9 8 35 1 19 -6 32 -15 29 -19 -2 -4 1 -11 7 -15 8 -4 9 -3 5 4 -4 7 -1 12
8 12 9 0 16 -6 16 -12 0 -10 3 -9 9 1 10 16 51 6 47 -12 -1 -7 -1 -9 1 -4 6 9
47 9 57 0 4 -4 24 -6 44 -5 29 1 32 0 17 -7 -13 -6 35 -9 130 -11 229 -3 245
-3 315 8 36 5 81 9 102 8 20 0 34 2 32 6 -4 6 126 39 166 43 9 0 21 4 28 9 6
4 16 5 21 2 5 -3 14 1 21 9 7 8 36 22 66 32 30 9 54 21 54 26 0 5 13 7 29 4
23 -5 33 -1 47 18 10 14 23 21 32 17 10 -3 13 -1 8 6 -10 16 16 15 34 0 12
-11 12 -10 1 4 -10 14 -9 18 8 27 11 6 24 11 30 11 6 0 20 9 32 21 13 13 27
18 42 14 14 -4 17 -3 10 2 -10 7 -8 13 7 26 11 9 24 17 29 17 5 0 14 7 22 16
7 8 21 13 31 10 17 -4 17 -2 6 12 -7 9 -8 13 -2 9 6 -3 22 5 35 19 12 13 29
22 35 20 7 -3 15 2 18 10 4 10 1 13 -7 8 -6 -3 8 12 33 34 25 23 51 41 59 42
8 0 12 3 8 6 -3 3 0 12 6 19 9 10 15 10 26 1 11 -8 13 -8 7 1 -9 16 12 56 25
48 5 -4 9 -1 9 6 0 6 22 34 50 62 27 27 47 54 44 58 -5 9 9 13 33 10 6 -1 14
3 18 9 3 6 0 7 -9 4 -9 -3 -16 -1 -16 5 0 6 7 11 15 11 8 0 12 6 9 14 -6 16
65 78 80 69 6 -3 5 0 -1 8 -15 16 -17 33 -3 24 6 -3 7 1 4 9 -3 9 -1 16 5 16
6 0 11 6 11 14 0 8 8 22 18 32 9 10 17 22 17 28 1 22 26 56 37 50 7 -4 8 -3 4
4 -4 7 0 24 8 39 9 16 23 46 32 68 12 28 18 35 21 22 3 -9 9 -17 14 -17 6 0 7
5 4 10 -9 15 0 12 49 -15 25 -14 52 -25 61 -25 9 0 13 -5 9 -11 -4 -7 0 -9 14
-5 11 4 23 2 27 -4 4 -6 21 -17 38 -24 18 -8 26 -15 19 -15 -7 -1 -10 -6 -7
-11 4 -6 -15 -54 -42 -108 -28 -57 -49 -90 -51 -79 -2 9 -8 17 -12 17 -6 0 -5
-12 0 -27 9 -25 9 -26 -4 -10 -13 17 -14 16 -12 -7 0 -13 5 -22 9 -19 14 9
-13 -38 -51 -87 -19 -25 -38 -44 -42 -43 -4 1 -6 -8 -4 -20 2 -12 2 -16 -2 -9
-9 20 -23 14 -17 -8 3 -11 0 -20 -6 -20 -6 0 -11 -7 -11 -15 0 -11 -7 -14 -24
-11 -22 4 -24 1 -21 -25 3 -24 0 -29 -17 -29 -16 0 -18 -3 -9 -14 9 -11 9 -16
0 -22 -8 -5 -10 -2 -5 7 4 8 1 6 -6 -5 -37 -53 -60 -75 -76 -70 -12 4 -13 3
-4 -3 9 -7 4 -17 -22 -40 -18 -18 -36 -37 -38 -44 -3 -9 -9 -9 -26 0 -12 7
-22 8 -21 4 4 -21 -2 -33 -13 -27 -7 5 -8 3 -3 -6 6 -10 11 -10 20 3 7 10 16
17 20 17 13 0 -18 -32 -50 -52 -16 -10 -27 -18 -23 -18 10 0 -20 -29 -61 -58
-27 -20 -35 -22 -49 -10 -16 12 -16 11 -2 -6 14 -18 13 -19 -8 -14 -18 5 -22
3 -18 -10 4 -12 -12 -29 -51 -57 -71 -50 -116 -74 -125 -68 -5 2 -8 -1 -8 -7
0 -7 -7 -10 -14 -7 -11 4 -13 1 -9 -10 5 -13 2 -15 -11 -10 -11 5 -15 3 -10
-5 5 -8 2 -9 -9 -5 -10 3 -17 2 -17 -3 0 -15 -72 -46 -101 -45 -17 1 -25 -4
-22 -11 4 -10 -41 -30 -59 -26 -5 1 -8 -3 -8 -9 0 -7 -10 -9 -24 -7 -18 4 -23
1 -19 -10 5 -11 1 -13 -17 -7 -13 4 -20 3 -17 -2 3 -5 -13 -8 -35 -7 -23 1
-35 -1 -28 -6 9 -6 9 -9 0 -15 -7 -4 -16 -1 -21 6 -7 11 -9 11 -9 -2 0 -10
-11 -20 -27 -23 -16 -4 -36 -9 -47 -13 -13 -3 -16 -1 -11 7 4 7 -4 5 -17 -4
-28 -19 -139 -42 -243 -51 -38 -3 -110 -10 -160 -15 -49 -4 -94 -6 -98 -3 -5
3 -36 5 -70 4 -75 -1 -129 8 -121 20 3 5 0 9 -5 9 -6 0 -11 -4 -11 -10 0 -5
-13 -10 -30 -10 -16 0 -30 4 -30 8 0 4 -24 9 -52 9 -82 3 -377 84 -347 96 9 3
10 6 2 6 -6 1 -15 -3 -18 -9 -3 -6 -13 -6 -23 -1 -9 5 -28 13 -42 18 -64 26
-80 37 -68 46 9 6 7 7 -5 3 -10 -3 -42 5 -70 18 -29 13 -62 27 -75 31 -12 3
-20 10 -17 15 3 5 -10 13 -29 18 -19 6 -41 15 -48 21 -7 6 -31 25 -52 43 -22
18 -41 32 -43 31 -9 -7 -22 -1 -49 22 -22 20 -26 27 -16 34 10 6 9 10 -7 14
-13 3 -19 1 -15 -5 4 -7 2 -7 -7 -2 -8 5 -31 20 -52 33 -39 24 -45 36 -24 45
6 3 3 4 -9 1 -16 -4 -30 5 -56 35 -20 22 -41 40 -47 40 -7 0 -9 5 -6 10 3 6 2
10 -3 10 -6 0 -42 32 -81 70 -46 46 -68 75 -65 85 4 10 2 13 -8 10 -9 -4 -20
4 -28 20 -7 14 -16 25 -20 25 -4 0 -24 26 -46 58 -21 31 -42 60 -47 63 -4 3
-5 13 -2 21 4 9 2 19 -4 23 -7 4 -8 0 -4 -11 12 -32 -14 -5 -28 28 -7 18 -20
38 -28 44 -8 7 -11 16 -6 24 5 8 4 11 -3 6 -13 -8 -44 52 -35 67 3 6 1 7 -5 3
-7 -4 -12 -1 -12 9 0 11 5 15 16 11 9 -3 12 -2 9 5 -4 5 -16 7 -27 3 -17 -5
-20 -3 -16 14 3 12 0 23 -7 26 -16 6 -87 175 -78 189 3 6 1 7 -5 3 -7 -4 -13
-4 -13 1 -1 4 -3 17 -4 28 -1 11 -12 40 -24 65 -12 25 -24 63 -26 84 -2 22 -9
42 -16 47 -6 4 -10 18 -7 33 3 14 2 23 -2 21 -4 -3 -10 8 -13 23 -3 15 -13 61
-21 102 -9 41 -16 76 -16 78 0 2 6 0 13 -4 6 -4 5 1 -4 12 -19 21 -20 30 -22
156 -1 47 -5 84 -10 81 -4 -2 -7 4 -7 14 0 10 -3 29 -7 42 -3 14 -2 22 3 19 5
-4 10 13 11 35 2 33 0 38 -7 22 -8 -16 -9 -14 -5 10 3 17 5 68 6 115 1 47 4
89 7 94 2 4 6 38 8 75 2 36 9 91 15 121 6 30 13 70 15 87 2 18 9 52 15 75 7
24 12 50 10 58 -2 13 -1 13 9 0 9 -12 10 -9 6 13 -6 27 8 39 17 15 3 -7 3 3 0
22 -3 22 3 57 15 92 11 31 17 60 14 64 -4 4 -1 4 7 -1 11 -6 13 -3 9 13 -4 12
-2 22 3 22 5 0 9 8 9 18 0 26 36 92 46 84 5 -4 2 1 -5 11 -11 14 -11 17 2 17
8 0 14 8 13 18 0 10 5 16 13 14 11 -2 12 0 3 10 -8 10 -6 20 8 38 11 14 20 32
20 41 0 23 11 30 26 18 9 -8 11 -5 7 10 -3 12 -1 21 5 21 5 0 13 7 16 16 3 8
2 12 -4 9 -6 -3 -10 0 -10 8 0 8 9 17 20 20 13 3 23 20 31 51 6 25 15 46 19
46 4 0 13 13 20 30 7 16 16 27 21 24 5 -3 9 2 9 10 0 9 7 16 15 16 8 0 15 7
15 15 0 19 26 62 55 91 11 11 27 31 35 44 28 44 60 69 78 64 14 -5 15 -4 2 5
-13 10 -8 15 12 12 5 0 7 5 5 12 -1 6 3 11 10 10 7 -2 10 4 7 12 -4 9 1 18 12
22 11 3 23 12 27 20 4 7 16 13 25 13 15 0 15 2 2 11 -12 9 -10 10 8 6 18 -4
21 -3 12 8 -8 10 -6 15 9 20 12 3 21 12 21 20 0 8 9 17 20 20 12 4 17 11 13
18 -4 8 -1 8 9 -1 13 -11 17 -9 22 10 3 13 17 31 31 41 20 14 24 15 19 2 -5
-11 -2 -14 10 -9 9 3 13 10 10 15 -3 5 5 9 18 9 19 0 20 2 8 10 -13 8 -11 11
7 16 13 4 20 10 17 15 -3 5 -1 9 5 9 5 0 12 -6 14 -12 3 -8 6 -5 6 5 1 24 20
41 49 44 15 2 21 -1 16 -9 -4 -7 -3 -8 4 -4 6 4 9 12 6 19 -2 7 10 23 27 36
18 13 29 20 26 14 -3 -5 3 -9 13 -9 14 0 16 4 9 12 -7 9 -2 14 21 19 17 4 27
11 24 17 -4 6 1 8 14 4 12 -4 23 -2 28 5 5 8 3 9 -6 4 -8 -5 -11 -4 -6 3 3 6
20 13 36 17 17 4 28 11 24 16 -9 15 3 10 22 -8 16 -16 16 -16 9 6 -5 15 -4 21
3 17 6 -3 13 -2 17 4 3 5 17 10 29 10 13 0 29 7 37 16 7 8 21 13 31 11 10 -3
16 -1 12 4 -3 5 -1 9 5 9 5 0 18 3 28 6 14 5 15 4 3 -4 -10 -8 -4 -10 23 -8
21 2 41 7 45 11 4 4 -3 4 -15 1 -12 -4 -24 -3 -27 2 -5 9 49 27 68 23 5 -1 12
3 16 9 4 6 18 12 31 14 14 1 30 6 37 10 6 4 30 8 51 9 22 0 37 5 34 10 -3 6 8
8 26 5 17 -2 31 -2 31 2 0 8 54 13 114 12 23 0 34 3 27 8 -7 4 11 7 41 6 30
-2 63 1 74 5 20 7 136 5 269 -6z m-1974 -1062 c-12 -20 -14 -14 -5 12 4 9 9
14 11 11 3 -2 0 -13 -6 -23z m3339 -2407 c0 -3 -4 -8 -10 -11 -5 -3 -10 -1
-10 4 0 6 5 11 10 11 6 0 10 -2 10 -4z m122 -288 c-7 -7 -12 -8 -12 -2 0 14
12 26 19 19 2 -3 -1 -11 -7 -17z"/>
<path d="M2315 4820 c-3 -6 1 -7 9 -4 18 7 21 14 7 14 -6 0 -13 -4 -16 -10z"/>
<path d="M2048 4763 c6 -2 18 -2 25 0 6 3 1 5 -13 5 -14 0 -19 -2 -12 -5z"/>
<path d="M1779 4663 c-13 -17 -13 -17 6 -3 11 8 22 16 24 17 2 2 0 3 -6 3 -6
0 -17 -8 -24 -17z"/>
<path d="M1650 4576 c0 -2 7 -7 16 -10 8 -3 12 -2 9 4 -6 10 -25 14 -25 6z"/>
<path d="M1460 4489 c0 -5 5 -7 10 -4 6 3 10 8 10 11 0 2 -4 4 -10 4 -5 0 -10
-5 -10 -11z"/>
<path d="M1845 4471 c-6 -11 13 -26 22 -17 4 3 1 6 -6 6 -7 0 -9 5 -6 10 3 6
4 10 1 10 -3 0 -7 -4 -11 -9z"/>
<path d="M3767 4469 c7 -7 15 -10 18 -7 3 3 -2 9 -12 12 -14 6 -15 5 -6 -5z"/>
<path d="M3785 4440 c-3 -6 1 -7 9 -4 18 7 21 14 7 14 -6 0 -13 -4 -16 -10z"/>
<path d="M1510 4230 c-9 -6 -10 -10 -3 -10 6 0 15 5 18 10 8 12 4 12 -15 0z"/>
<path d="M1451 4214 c0 -11 3 -14 6 -6 3 7 2 16 -1 19 -3 4 -6 -2 -5 -13z"/>
<path d="M3705 4200 c3 -5 11 -10 16 -10 6 0 7 5 4 10 -3 6 -11 10 -16 10 -6
0 -7 -4 -4 -10z"/>
<path d="M1387 4134 c-20 -27 -14 -32 10 -9 8 8 13 19 11 24 -2 5 -11 -2 -21
-15z"/>
<path d="M1294 4041 c0 -11 5 -17 13 -14 10 4 11 9 2 19 -15 18 -15 18 -15 -5z"/>
<path d="M943 4005 c-3 -9 -3 -18 -1 -21 3 -3 8 4 11 16 6 23 -1 27 -10 5z"/>
<path d="M1203 3985 c-3 -9 -3 -18 -1 -21 3 -3 8 4 11 16 6 23 -1 27 -10 5z"/>
<path d="M1200 3940 c0 -5 5 -10 11 -10 5 0 7 5 4 10 -3 6 -8 10 -11 10 -2 0
-4 -4 -4 -10z"/>
<path d="M1135 3900 c-13 -6 -15 -9 -5 -9 8 0 22 4 30 9 18 12 2 12 -25 0z"/>
<path d="M4035 3900 c3 -5 8 -10 11 -10 2 0 4 5 4 10 0 6 -5 10 -11 10 -5 0
-7 -4 -4 -10z"/>
<path d="M4010 3891 c0 -5 5 -13 10 -16 6 -3 10 -2 10 4 0 5 -4 13 -10 16 -5
3 -10 2 -10 -4z"/>
<path d="M1126 3833 c-6 -14 -5 -15 5 -6 7 7 10 15 7 18 -3 3 -9 -2 -12 -12z"/>
<path d="M4057 3829 c7 -7 15 -10 18 -7 3 3 -2 9 -12 12 -14 6 -15 5 -6 -5z"/>
<path d="M965 3610 c3 -5 8 -10 11 -10 2 0 4 5 4 10 0 6 -5 10 -11 10 -5 0 -7
-4 -4 -10z"/>
<path d="M4480 3520 c-9 -6 -10 -10 -3 -10 6 0 15 5 18 10 8 12 4 12 -15 0z"/>
<path d="M4314 3500 c0 -13 4 -16 10 -10 7 7 7 13 0 20 -6 6 -10 3 -10 -10z"/>
<path d="M736 2904 c-4 -9 -4 -19 -1 -22 2 -3 7 3 11 12 4 9 4 19 1 22 -2 3
-7 -3 -11 -12z"/>
<path d="M753 2115 c0 -22 2 -30 4 -17 2 12 2 30 0 40 -3 9 -5 -1 -4 -23z"/>
<path d="M910 1611 c0 -6 4 -13 10 -16 6 -3 7 1 4 9 -7 18 -14 21 -14 7z"/>
<path d="M935 1570 c3 -5 11 -10 16 -10 6 0 7 5 4 10 -3 6 -11 10 -16 10 -6 0
-7 -4 -4 -10z"/>
<path d="M4180 1450 c-9 -6 -10 -10 -3 -10 6 0 15 5 18 10 8 12 4 12 -15 0z"/>
<path d="M1040 1411 c0 -6 4 -13 10 -16 6 -3 7 1 4 9 -7 18 -14 21 -14 7z"/>
<path d="M1046 1363 c-6 -14 -5 -15 5 -6 7 7 10 15 7 18 -3 3 -9 -2 -12 -12z"/>
<path d="M4059 1233 c-13 -16 -12 -17 4 -4 9 7 17 15 17 17 0 8 -8 3 -21 -13z"/>
<path d="M4326 1233 c-6 -14 -5 -15 5 -6 7 7 10 15 7 18 -3 3 -9 -2 -12 -12z"/>
<path d="M900 1180 c0 -5 5 -10 11 -10 5 0 7 5 4 10 -3 6 -8 10 -11 10 -2 0
-4 -4 -4 -10z"/>
<path d="M3979 1173 c-13 -16 -12 -17 4 -4 9 7 17 15 17 17 0 8 -8 3 -21 -13z"/>
<path d="M930 1165 c0 -5 5 -17 10 -25 5 -8 10 -10 10 -5 0 6 -5 17 -10 25 -5
8 -10 11 -10 5z"/>
<path d="M978 1103 c7 -3 16 -2 19 1 4 3 -2 6 -13 5 -11 0 -14 -3 -6 -6z"/>
<path d="M4162 1012 c-11 -25 -11 -25 4 -10 9 9 15 21 13 27 -2 6 -10 -2 -17
-17z"/>
<path d="M3775 979 c-11 -17 1 -21 15 -4 8 9 8 15 2 15 -6 0 -14 -5 -17 -11z"/>
<path d="M3930 790 c0 -5 5 -10 10 -10 6 0 10 5 10 10 0 6 -4 10 -10 10 -5 0
-10 -4 -10 -10z"/>
<path d="M3780 670 c-9 -6 -10 -10 -3 -10 6 0 15 5 18 10 8 12 4 12 -15 0z"/>
<path d="M3288 663 c7 -3 16 -2 19 1 4 3 -2 6 -13 5 -11 0 -14 -3 -6 -6z"/>
<path d="M1560 636 c0 -2 8 -10 18 -17 15 -13 16 -12 3 4 -13 16 -21 21 -21
13z"/>
<path d="M3720 629 c0 -5 5 -7 10 -4 6 3 10 8 10 11 0 2 -4 4 -10 4 -5 0 -10
-5 -10 -11z"/>
<path d="M3670 589 c0 -5 5 -7 10 -4 6 3 10 8 10 11 0 2 -4 4 -10 4 -5 0 -10
-5 -10 -11z"/>
<path d="M3015 570 c3 -5 8 -10 11 -10 2 0 4 5 4 10 0 6 -5 10 -11 10 -5 0 -7
-4 -4 -10z"/>
<path d="M1970 406 c0 -2 7 -7 16 -10 8 -3 12 -2 9 4 -6 10 -25 14 -25 6z"/>
<path d="M2077 369 c7 -7 15 -10 18 -7 3 3 -2 9 -12 12 -14 6 -15 5 -6 -5z"/>
<path d="M2908 313 c7 -3 16 -2 19 1 4 3 -2 6 -13 5 -11 0 -14 -3 -6 -6z"/>
<path d="M1970 2550 c0 -610 3 -1110 8 -1110 4 0 79 -1 167 -2 l160 -2 3 344
2 345 278 1 c241 0 293 3 399 22 312 57 515 235 595 523 19 71 23 107 23 234
0 136 -3 158 -28 237 -90 282 -271 438 -592 508 -22 5 -259 9 -527 10 l-488 0
0 -1110z m955 1081 c42 -1 124 -17 160 -32 31 -12 39 -15 65 -18 12 -1 12 -3
2 -9 -8 -6 -1 -9 19 -9 19 0 37 -7 45 -17 7 -10 17 -15 22 -12 5 3 17 -3 27
-14 10 -11 21 -18 24 -15 4 2 8 -6 8 -17 1 -12 7 -26 14 -32 9 -8 10 -8 5 2
-4 7 -2 12 6 12 24 0 39 -16 32 -36 -5 -16 -4 -16 5 -4 9 13 12 12 17 -7 4
-13 11 -20 20 -16 9 3 12 0 9 -8 -3 -8 4 -18 17 -24 13 -6 21 -14 18 -18 -3
-5 3 -13 13 -18 9 -6 17 -17 17 -24 0 -8 5 -15 11 -15 5 0 8 -4 4 -9 -3 -5 2
-17 11 -26 9 -8 17 -26 18 -39 0 -13 4 -22 7 -20 4 2 9 -5 12 -16 3 -10 0 -21
-7 -24 -6 -2 -3 -5 7 -5 12 -1 17 -9 17 -31 0 -16 5 -30 11 -30 7 0 9 -11 5
-30 -3 -17 -2 -29 2 -26 9 5 11 -11 11 -124 1 -114 -8 -224 -19 -228 -5 -2 -6
-10 -3 -19 3 -8 0 -19 -8 -24 -8 -4 -14 -14 -14 -21 -2 -26 -17 -68 -26 -68
-5 0 -5 -7 -2 -17 5 -12 3 -14 -7 -8 -10 6 -12 4 -7 -9 5 -13 3 -17 -7 -13
-10 4 -13 1 -9 -9 7 -20 -14 -18 -26 4 -6 9 -11 12 -11 6 0 -6 7 -17 15 -24 8
-7 15 -18 15 -24 0 -6 -5 -4 -10 4 -9 14 -14 7 -11 -14 1 -4 -10 -19 -24 -32
-14 -13 -24 -24 -20 -24 3 0 -7 -13 -22 -30 -14 -16 -32 -30 -40 -30 -7 0 -13
-6 -13 -14 0 -12 -21 -27 -41 -30 -3 -1 -13 -9 -23 -18 -10 -10 -24 -18 -32
-18 -8 0 -14 -6 -15 -12 0 -10 -2 -10 -6 0 -4 9 -10 7 -23 -8 -12 -13 -24 -18
-35 -13 -13 4 -16 3 -11 -5 4 -7 1 -13 -8 -13 -25 -2 -30 -4 -43 -12 -7 -5
-17 -6 -22 -2 -5 3 -12 1 -15 -4 -3 -5 -27 -12 -53 -16 -27 -5 -57 -10 -68
-12 -11 -2 -157 -6 -324 -9 -196 -3 -310 -9 -318 -16 -10 -8 -13 -82 -13 -344
l0 -334 -140 0 -139 0 0 1084 0 1085 47 3 c36 2 680 1 877 -1z"/>
<path d="M2348 3413 c7 -3 16 -2 19 1 4 3 -2 6 -13 5 -11 0 -14 -3 -6 -6z"/>
<path d="M2310 3401 c0 -8 -6 -22 -14 -30 -18 -21 -19 -35 -17 -523 l1 -418
24 -16 c19 -11 48 -15 113 -15 337 3 470 7 467 13 -3 4 18 6 46 4 31 -2 53 1
58 8 10 16 92 47 105 39 6 -3 7 -1 3 5 -4 7 -3 12 2 12 6 0 32 23 59 51 26 29
58 62 69 74 12 12 25 32 29 43 3 13 11 19 17 16 7 -4 8 -2 4 4 -4 6 1 37 10
68 23 80 22 240 -2 319 -10 33 -17 63 -16 68 1 4 -3 7 -9 7 -5 0 -7 5 -4 10 3
6 2 10 -4 10 -9 0 -45 55 -46 72 0 3 -4 10 -9 15 -5 5 -6 2 -1 -6 5 -9 4 -12
-3 -7 -7 4 -12 14 -12 22 0 8 -4 14 -9 14 -5 0 -32 15 -60 34 -115 78 -229 96
-578 90 -182 -2 -204 -1 -213 14 -7 13 -9 13 -10 3z m675 -73 c172 -62 262
-171 285 -349 22 -169 -15 -309 -110 -408 -113 -117 -211 -141 -587 -141 -165
0 -263 4 -265 10 -1 5 -2 215 0 466 l2 456 303 -4 c292 -5 304 -6 372 -30z"/>
<path d="M3135 3310 c-3 -5 -1 -10 4 -10 6 0 11 5 11 10 0 6 -2 10 -4 10 -3 0
-8 -4 -11 -10z"/>
<path d="M3230 3206 c0 -2 7 -9 15 -16 13 -11 14 -10 9 4 -5 14 -24 23 -24 12z"/>
<path d="M3260 2630 c0 -5 5 -10 11 -10 5 0 7 5 4 10 -3 6 -8 10 -11 10 -2 0
-4 -4 -4 -10z"/>
<path d="M3296 2313 c-6 -14 -5 -15 5 -6 7 7 10 15 7 18 -3 3 -9 -2 -12 -12z"/>
<path d="M3228 2306 c-10 -7 -18 -19 -18 -27 0 -11 2 -11 10 1 8 12 12 12 18
2 7 -10 12 -9 23 4 12 16 12 17 -5 11 -14 -6 -17 -4 -12 8 7 18 6 18 -16 1z"/>
<path d="M3030 2210 c-9 -6 -10 -10 -3 -10 6 0 15 5 18 10 8 12 4 12 -15 0z"/>
<path d="M3760 1103 c0 -6 8 -17 18 -24 16 -13 16 -13 2 6 -8 11 -16 22 -17
24 -2 2 -3 0 -3 -6z"/>
</g>
</svg>
